<?xml version="1.0" encoding="UTF-8" standalone="no"?>
<svg
   width="48"
   height="48"
   viewBox="0 0 48 48"
   fill="none"
   version="1.1"
   id="svg1"
   sodipodi:docname="Add_dark.svg"
   inkscape:version="1.4.2 (f4327f4, 2025-05-13)"
   xmlns:inkscape="http://www.inkscape.org/namespaces/inkscape"
   xmlns:sodipodi="http://sodipodi.sourceforge.net/DTD/sodipodi-0.dtd"
   xmlns="http://www.w3.org/2000/svg"
   xmlns:svg="http://www.w3.org/2000/svg">
  <defs
     id="defs1" />
  <sodipodi:namedview
     id="namedview1"
     pagecolor="#ffffff"
     bordercolor="#000000"
     borderopacity="0.25"
     inkscape:showpageshadow="2"
     inkscape:pageopacity="0.0"
     inkscape:pagecheckerboard="0"
     inkscape:deskcolor="#d1d1d1"
     inkscape:zoom="37.25"
     inkscape:cx="23.986577"
     inkscape:cy="24"
     inkscape:window-width="3840"
     inkscape:window-height="2054"
     inkscape:window-x="-11"
     inkscape:window-y="-11"
     inkscape:window-maximized="1"
     inkscape:current-layer="svg1" />
  <path
     d="M23.75 5.5C24.4404 5.5 25 6.05964 25 6.75V22.5H40.75C41.4404 22.5 42 23.0596 42 23.75C42 24.4404 41.4404 25 40.75 25H25V40.75C25 41.4404 24.4404 42 23.75 42C23.0596 42 22.5 41.4404 22.5 40.75V25H6.75C6.05964 25 5.5 24.4404 5.5 23.75C5.5 23.0596 6.05964 22.5 6.75 22.5H22.5V6.75C22.5 6.05964 23.0596 5.5 23.75 5.5Z"
     fill="#212121"
     id="path1"
     style="fill:#ffd42a" />
</svg>
