<?xml version="1.0" encoding="UTF-8" standalone="no"?>
<svg
   width="24"
   height="24"
   viewBox="0 0 24 24"
   version="1.1"
   id="svg1"
   sodipodi:docname="power_settings_new_dark.svg"
   inkscape:version="1.4.2 (f4327f4, 2025-05-13)"
   xmlns:inkscape="http://www.inkscape.org/namespaces/inkscape"
   xmlns:sodipodi="http://sodipodi.sourceforge.net/DTD/sodipodi-0.dtd"
   xmlns="http://www.w3.org/2000/svg"
   xmlns:svg="http://www.w3.org/2000/svg">
  <defs
     id="defs1" />
  <sodipodi:namedview
     id="namedview1"
     pagecolor="#ffffff"
     bordercolor="#000000"
     borderopacity="0.25"
     inkscape:showpageshadow="2"
     inkscape:pageopacity="0.0"
     inkscape:pagecheckerboard="0"
     inkscape:deskcolor="#d1d1d1"
     showgrid="false"
     inkscape:zoom="74.5"
     inkscape:cx="12.006711"
     inkscape:cy="12"
     inkscape:window-width="3840"
     inkscape:window-height="2054"
     inkscape:window-x="-11"
     inkscape:window-y="-11"
     inkscape:window-maximized="1"
     inkscape:current-layer="svg1" />
  <path
     d="M12 3c-.55 0-1 .45-1 1v8c0 .55.45 1 1 1s1-.45 1-1V4c0-.55-.45-1-1-1zm5.14 2.86a.99.99 0 0 0-.01 1.39c1.13 1.2 1.83 2.8 1.87 4.57.09 3.83-3.08 7.13-6.91 7.17A6.981 6.981 0 0 1 5 12c0-1.84.71-3.51 1.87-4.76.37-.39.37-1-.01-1.38a.993.993 0 0 0-1.43.02A8.92 8.92 0 0 0 3 11.74c-.14 4.88 3.83 9.1 8.71 9.25 5.1.16 9.29-3.93 9.29-9 0-2.37-.92-4.51-2.42-6.11-.38-.41-1.04-.42-1.44-.02z"
     id="path1"
     style="fill:#ffd42a" />
</svg>
