<?xml version="1.0" encoding="UTF-8" standalone="no"?>
<svg
   width="24"
   height="24"
   viewBox="0 0 24 24"
   version="1.1"
   id="svg1"
   sodipodi:docname="replay_dark.svg"
   inkscape:version="1.4.2 (f4327f4, 2025-05-13)"
   xmlns:inkscape="http://www.inkscape.org/namespaces/inkscape"
   xmlns:sodipodi="http://sodipodi.sourceforge.net/DTD/sodipodi-0.dtd"
   xmlns="http://www.w3.org/2000/svg"
   xmlns:svg="http://www.w3.org/2000/svg">
  <defs
     id="defs1" />
  <sodipodi:namedview
     id="namedview1"
     pagecolor="#ffffff"
     bordercolor="#000000"
     borderopacity="0.25"
     inkscape:showpageshadow="2"
     inkscape:pageopacity="0.0"
     inkscape:pagecheckerboard="0"
     inkscape:deskcolor="#d1d1d1"
     showgrid="false"
     inkscape:zoom="74.5"
     inkscape:cx="2.3691275"
     inkscape:cy="12"
     inkscape:window-width="3840"
     inkscape:window-height="2054"
     inkscape:window-x="-11"
     inkscape:window-y="-11"
     inkscape:window-maximized="1"
     inkscape:current-layer="svg1" />
  <path
     d="M12 5V2.21c0-.45-.54-.67-.85-.35l-3.8 3.79c-.2.2-.2.51 0 .71l3.79 3.79c.32.31.86.09.86-.36V7c3.73 0 6.68 3.42 5.86 7.29-.47 2.27-2.31 4.1-4.57 4.57-3.57.75-6.75-1.7-7.23-5.01a1 1 0 0 0-.98-.85c-.6 0-1.08.53-1 1.13.62 4.39 4.8 7.64 9.53 6.72 3.12-.61 5.63-3.12 6.24-6.24C20.84 9.48 16.94 5 12 5z"
     id="path1"
     style="fill:#ffd42a" />
</svg>
