<?xml version="1.0" encoding="UTF-8" standalone="no"?>
<svg
   width="24"
   height="24"
   viewBox="0 0 24 24"
   version="1.1"
   id="svg1"
   sodipodi:docname="text_decrease_dark.svg"
   inkscape:version="1.4.2 (f4327f4, 2025-05-13)"
   xmlns:inkscape="http://www.inkscape.org/namespaces/inkscape"
   xmlns:sodipodi="http://sodipodi.sourceforge.net/DTD/sodipodi-0.dtd"
   xmlns="http://www.w3.org/2000/svg"
   xmlns:svg="http://www.w3.org/2000/svg">
  <defs
     id="defs1" />
  <sodipodi:namedview
     id="namedview1"
     pagecolor="#ffffff"
     bordercolor="#000000"
     borderopacity="0.25"
     inkscape:showpageshadow="2"
     inkscape:pageopacity="0.0"
     inkscape:pagecheckerboard="0"
     inkscape:deskcolor="#d1d1d1"
     showgrid="false"
     inkscape:zoom="74.5"
     inkscape:cx="12.006711"
     inkscape:cy="12"
     inkscape:window-width="3840"
     inkscape:window-height="2054"
     inkscape:window-x="-11"
     inkscape:window-y="-11"
     inkscape:window-maximized="1"
     inkscape:current-layer="svg1" />
  <path
     d="M2.61 19c.48 0 .91-.3 1.06-.75l1.01-2.83h5.65l.99 2.82c.16.46.59.76 1.07.76.79 0 1.33-.79 1.05-1.52L9.19 6.17C8.93 5.47 8.25 5 7.5 5s-1.43.47-1.69 1.17L1.56 17.48c-.28.73.27 1.52 1.05 1.52zM7.44 7.6h.12l2.03 5.79H5.41L7.44 7.6zM15 12c0-.55.45-1 1-1h6c.55 0 1 .45 1 1s-.45 1-1 1h-6c-.55 0-1-.45-1-1z"
     id="path1"
     style="fill:#ffd42a" />
</svg>
